<svg id="Layer_3" data-name="Layer 3" xmlns="http://www.w3.org/2000/svg" xmlns:xlink="http://www.w3.org/1999/xlink" viewBox="0 0 947.33 210.66"><defs><style>.cls-1{fill:#fff;}.cls-2{fill:url(#linear-gradient);}.cls-3{fill:url(#linear-gradient-2);}</style><linearGradient id="linear-gradient" x1="56.91" y1="243.03" x2="58.98" y2="114.19" gradientUnits="userSpaceOnUse"><stop offset="0" stop-color="#008c45"/><stop offset="1" stop-color="#008c45"/></linearGradient><linearGradient id="linear-gradient-2" x1="119.96" y1="227.88" x2="121.11" y2="156.06" xlink:href="#linear-gradient"/></defs><path class="cls-1" d="M208.37,180.74q0,8.46,4.29,13.74a13.66,13.66,0,0,0,11.12,5.27,14.69,14.69,0,0,0,10.61-3.94,13.37,13.37,0,0,0,4.11-10.09,14.19,14.19,0,0,0-3-9.33q-3-3.64-10.78-7.36-4.41-2-13-5.45t-11-5.44a35.34,35.34,0,0,1-13.8-29.21,36.78,36.78,0,0,1,11.3-27.24,37.65,37.65,0,0,1,27.42-11.13q17,0,27,9.85T263.43,128H236.77v-.69q0-6.15-3.19-9.63t-8.87-3.47a11.06,11.06,0,0,0-8.29,3.42,11.79,11.79,0,0,0-3.3,8.52q0,8.34,17.15,15.53,4.53,1.84,7,2.9,16.46,7.41,22.49,15.93t6,23q0,17.85-12.05,29.5t-30.37,11.65q-18.44,0-29.73-12.28t-12.35-33.27l27.13-.12Z" transform="translate(-21.35 -52.56)"/><path class="cls-1" d="M382.4,205.68a32.81,32.81,0,0,1-15,14q-9.67,4.51-24.75,4.52-28.27,0-47.23-19.3t-19-47.93a68.81,68.81,0,0,1,4.75-25.5,64.24,64.24,0,0,1,13.56-21.22,61.23,61.23,0,0,1,21.1-14.89A67.35,67.35,0,0,1,342,90.58q13.91,0,23.93,4.63a38.11,38.11,0,0,1,16.17,14V89.29h29V224.67H382.4Zm-64.85-22.2a35.34,35.34,0,0,0,26.13,10.84q14,0,24.69-10.89T379,157.93a37.28,37.28,0,0,0-10.72-26.72Q357.6,120,343.22,120a36.33,36.33,0,0,0-36.4,36.51Q306.82,172.66,317.55,183.48Z" transform="translate(-21.35 -52.56)"/><path class="cls-1" d="M424.79,52.56h29V224.67h-29Z" transform="translate(-21.35 -52.56)"/><path class="cls-1" d="M553.09,124.18q-8.28-5-19.65-5a33,33,0,0,0-25.21,10.9Q498.09,141,498.09,157.44q0,16.23,10.37,27t26,10.78q12.06,0,20-5.16t11.94-15.47h31.64q-5.79,23.42-22.6,36.74t-40.8,13.33a67.25,67.25,0,0,1-26.2-5,66.5,66.5,0,0,1-21.79-14.9A67.18,67.18,0,0,1,472.59,183a66.3,66.3,0,0,1-5.1-25.33,67.53,67.53,0,0,1,4.64-25.15,64.53,64.53,0,0,1,13.67-21.1,68.37,68.37,0,0,1,22.49-16A66.7,66.7,0,0,1,535.18,90q23.42,0,40.57,13.33t22.61,35.82H566.71Q561.39,129.15,553.09,124.18Z" transform="translate(-21.35 -52.56)"/><path class="cls-1" d="M617.07,131.42a64.51,64.51,0,0,1,14.32-21.5,68.64,68.64,0,0,1,21.67-14.78,63,63,0,0,1,25-5.16,69,69,0,0,1,25.44,4.58,66.69,66.69,0,0,1,21.39,13.73,68.48,68.48,0,0,1,15.41,22.2,64.16,64.16,0,0,1,5.45,25.79A72,72,0,0,1,741,182.94a65.21,65.21,0,0,1-14.26,21.79,63.64,63.64,0,0,1-21.67,14.9,68.44,68.44,0,0,1-26.43,5,63,63,0,0,1-47.76-20.4,69.75,69.75,0,0,1-14-22A68.12,68.12,0,0,1,612.14,157,67.28,67.28,0,0,1,617.07,131.42Zm35.41,53.44q9.74,10.37,26.43,10.37,16.46,0,26.25-10.61t9.8-28.57q0-16.11-10.26-26.49t-25.79-10.37q-16,0-26.08,10.49t-10.08,27.07Q642.75,174.48,652.48,184.86Z" transform="translate(-21.35 -52.56)"/><path class="cls-1" d="M796.07,128.71q-6.84,7.65-6.84,27.59v68.37H759.55V89.29h27.82v19.26a43.65,43.65,0,0,1,32.81-19.26v30.38Q802.9,121.07,796.07,128.71Z" transform="translate(-21.35 -52.56)"/><path class="cls-1" d="M863.31,263.21H834.1L834,89.91h29.21l.15,15.2A64.51,64.51,0,0,1,882,94.62a62.89,62.89,0,0,1,21-3.42A67.74,67.74,0,0,1,925.67,95a58.36,58.36,0,0,1,19.13,11.19,68.68,68.68,0,0,1,23.87,52.39,67.76,67.76,0,0,1-5.62,27.24,64.58,64.58,0,0,1-15.94,22.38A61.41,61.41,0,0,1,927,220.91a65.11,65.11,0,0,1-23.82,4.4,67.39,67.39,0,0,1-21.84-3.3,56.56,56.56,0,0,1-18-10.26ZM875,184.92a34.76,34.76,0,0,0,26.08,11,35.17,35.17,0,0,0,26.14-11.13,36.87,36.87,0,0,0,10.83-26.66q0-16.11-10.89-26.78t-27.47-10.66a33.33,33.33,0,0,0-24.92,10.72q-10.32,10.72-10.32,26.26Q864.47,174,875,184.92Z" transform="translate(-21.35 -52.56)"/><rect class="cls-1" y="36.59" width="135.52" height="135.52" rx="12.34"/><path class="cls-2" d="M82.28,207.81a492.91,492.91,0,0,1-42.58-85c11.35,49.13,26.05,75.86,34.89,88.7C7.35,199.62,33.92,111.33,33.92,111.33,101,153.47,88.76,194.52,82.28,207.81Z" transform="translate(-21.35 -52.56)"/><path class="cls-3" d="M97,209.63a345,345,0,0,1,46.22-48c-29.82,19-44,34.92-50.47,43.76-7.83-47.21,56.71-50.26,56.71-50.26C137.28,209.29,107.3,210.81,97,209.63Z" transform="translate(-21.35 -52.56)"/></svg>